<?xml version="1.0"?>
<svg xmlns="http://www.w3.org/2000/svg" viewBox="0 0 64 64" width="512" height="512"><g id="autopilot"><path d="M47,4a12.95,12.95,0,0,1,9.194,3.809l1.412-1.418a15,15,0,0,0-21.212,0l1.412,1.418A12.95,12.95,0,0,1,47,4Z"/><path d="M54.777,9.223a10.994,10.994,0,0,0-15.554,0l1.414,1.414a9,9,0,0,1,12.726,0Z"/><path d="M51.95,12.056a6.987,6.987,0,0,0-9.9,0l1.42,1.408a4.988,4.988,0,0,1,7.06,0Z"/><path d="M44,17a3,3,0,1,0,3-3A3,3,0,0,0,44,17Zm4,0a1,1,0,1,1-1-1A1,1,0,0,1,48,17Z"/><path d="M27,8H5a3,3,0,0,0-3,3V53a3,3,0,0,0,3,3H27a3,3,0,0,0,3-3V11A3,3,0,0,0,27,8ZM9,10H23v1a1,1,0,0,1-1,1H10a1,1,0,0,1-1-1ZM28,53a1,1,0,0,1-1,1H5a1,1,0,0,1-1-1V11a1,1,0,0,1,1-1H7v1a3,3,0,0,0,3,3H22a3,3,0,0,0,3-3V10h2a1,1,0,0,1,1,1Z"/><path d="M43,45h2a2,2,0,0,1,4,0h2a4,4,0,0,0-8,0Z"/><path d="M53,45h2a8,8,0,0,0-16,0h2a6,6,0,0,1,12,0Z"/><path d="M59,45a12,12,0,0,0-24,0h2a10,10,0,0,1,20,0Z"/><path d="M21,25a5,5,0,1,0-5,5A5.006,5.006,0,0,0,21,25Zm-8,0a3,3,0,1,1,3,3A3,3,0,0,1,13,25Z"/><path d="M15.313,37.726a1,1,0,0,0,1.375,0C17.539,36.92,25,29.712,25,25A9,9,0,0,0,7,25C7,29.712,14.461,36.92,15.313,37.726ZM16,18a7.009,7.009,0,0,1,7,7c0,2.96-4.553,8.144-7,10.6C13.553,33.146,9,27.963,9,25A7.009,7.009,0,0,1,16,18Z"/><path d="M23,48H9.5a1.5,1.5,0,0,1,0-3H14a3,3,0,0,0,3-3V40H15v2a1,1,0,0,1-1,1H9.5a3.5,3.5,0,0,0,0,7H23a1,1,0,0,1,1,1v1h2V51A3,3,0,0,0,23,48Z"/><path d="M57.9,56.553A1,1,0,0,0,57,56H48V51.816a3,3,0,1,0-2,0V56H37a1,1,0,0,0-.9.553l-2,4A1,1,0,0,0,35,62H59a1,1,0,0,0,.9-1.447ZM47,48a1,1,0,1,1-1,1A1,1,0,0,1,47,48ZM36.618,60l1-2H56.382l1,2Z"/><path d="M60,22V20H54v2h2v2H55a1,1,0,0,0-1,1v1H52a1,1,0,0,0-.052-.316l-1-3A1,1,0,0,0,50,22H44a1,1,0,0,0-.948.684l-1,3A1,1,0,0,0,42,26H40V25a1,1,0,0,0-1-1H38V22h2V20H34v2h2v2H35a1,1,0,0,0-1,1v4a1,1,0,0,0,1,1h4a1,1,0,0,0,1-1V28h2v1a1,1,0,0,0,1,1h8a1,1,0,0,0,1-1V28h2v1a1,1,0,0,0,1,1h4a1,1,0,0,0,1-1V25a1,1,0,0,0-1-1H58V22ZM38,28H36V26h2Zm12,0H44V26.162L44.721,24h4.558L50,26.162Zm8,0H56V26h2Z"/></g></svg>
