<svg id="Capa_1" enable-background="new 0 0 512 512" height="512" viewBox="0 0 512 512" width="512" xmlns="http://www.w3.org/2000/svg"><g><g><path d="m472.435 440.371h-432.87c-17.709 0-32.065-14.356-32.065-32.065v-304.612c0-17.709 14.356-32.065 32.065-32.065h432.871c17.709 0 32.065 14.356 32.065 32.065v304.613c-.001 17.708-14.357 32.064-32.066 32.064z" fill="#ffe8a0"/><path d="m41.51 71.629 174.809 174.813c21.896 21.876 57.483 21.876 79.363 0l174.808-174.813z" fill="#fff8c3"/><path d="m495.108 81.02-180.536 180.541c-14.75 14.75-34.27 24.397-55.111 25.264-22.705.945-44.197-7.443-60.147-23.379l-182.422-182.426c-5.803 5.803-9.392 13.819-9.392 22.674v304.613c0 17.709 14.356 32.065 32.065 32.065h432.871c14.924 0 27.355-10.243 30.931-24.048h-471.819v-247.93c0-14.283 17.269-21.436 27.369-11.336l123.391 123.394c19.688 19.67 45.855 30.495 73.697 30.495 27.849 0 54.016-10.829 73.682-30.492l174.813-174.817v-1.944c0-8.855-3.589-16.872-9.392-22.674z" fill="#ffd78c"/></g><path d="m472.436 64.129h-432.872c-21.815 0-39.564 17.749-39.564 39.564v304.613c0 21.815 17.749 39.564 39.564 39.564h432.871c21.816 0 39.564-17.749 39.564-39.564v-304.613c.001-21.815-17.748-39.564-39.563-39.564zm-141.701 191.871 163.537-163.536c1.739 3.369 2.728 7.185 2.728 11.229v304.613c0 4.045-.989 7.861-2.728 11.229zm141.701-176.871c4.045 0 7.861.989 11.23 2.729l-176.287 176.286c-28.331 28.33-74.428 28.33-102.759 0l-24.597-24.598c-2.929-2.929-7.678-2.929-10.606 0-2.929 2.929-2.929 7.678 0 10.606l11.848 11.848-163.537 163.536c-1.739-3.369-2.728-7.184-2.728-11.229v-304.614c0-4.045.989-7.861 2.728-11.229l127.753 127.753c1.464 1.465 3.384 2.197 5.303 2.197s3.839-.732 5.303-2.197c2.929-2.929 2.929-7.678 0-10.606l-127.752-127.754c3.368-1.739 7.185-2.729 11.23-2.729h432.871zm-432.872 353.742c-4.045 0-7.861-.989-11.23-2.729l163.537-163.536 2.143 2.144c17.089 17.089 39.538 25.634 61.986 25.634s44.896-8.544 61.986-25.634l2.143-2.144 163.536 163.536c-3.368 1.739-7.185 2.729-11.23 2.729z"/></g></svg>