<?xml version="1.0" encoding="iso-8859-1"?>
<!-- Generator: Adobe Illustrator 19.0.0, SVG Export Plug-In . SVG Version: 6.00 Build 0)  -->
<svg version="1.1" id="Layer_1" xmlns="http://www.w3.org/2000/svg" xmlns:xlink="http://www.w3.org/1999/xlink" x="0px" y="0px"
	 viewBox="0 0 511.998 511.998" style="enable-background:new 0 0 511.998 511.998;" xml:space="preserve">
<path style="fill:#FFCE63;" d="M485.022,326.714l-46.009-46.009c-19.999-19.999-52.422-19.999-72.42,0l-48.382,48.382
	L182.865,193.74l48.382-48.382c19.999-19.999,19.999-52.422,0-72.42L185.239,26.93c-19.999-19.999-52.422-19.999-72.42,0
	L64.437,75.312L47.519,92.231l-0.962,0.961c-46.188,46.188-46.187,121.072,0,167.26l102.472,102.472l102.472,102.472
	c46.187,46.187,121.072,46.187,167.26,0l0.962-0.962l16.918-16.918l48.382-48.382C505.02,379.135,505.02,346.712,485.022,326.714z"
	/>
<path d="M493.481,318.254l-46.008-46.008c-11.932-11.932-27.795-18.502-44.67-18.502s-32.737,6.571-44.669,18.502l-39.923,39.923
	L199.783,193.741l39.923-39.923c11.932-11.932,18.502-27.795,18.502-44.669s-6.571-32.738-18.502-44.669l-46.009-46.009
	c-24.631-24.63-64.708-24.628-89.338,0L38.098,84.733c-50.777,50.778-50.777,133.4,0,184.179l204.943,204.943
	c24.597,24.598,57.302,38.144,92.089,38.144s67.492-13.546,92.09-38.144l66.261-66.262c11.932-11.932,18.502-27.795,18.502-44.669
	C511.983,346.05,505.412,330.186,493.481,318.254z M476.562,390.675l-66.261,66.261c-20.079,20.079-46.776,31.136-75.171,31.136
	c-28.396,0-55.092-11.057-75.17-31.136L55.017,251.993c-20.079-20.079-31.136-46.774-31.136-75.17s11.057-55.092,31.136-75.17
	l66.261-66.262c7.652-7.652,17.701-11.476,27.751-11.476s20.099,3.826,27.751,11.476L222.788,81.4
	c7.412,7.412,11.494,17.267,11.494,27.751s-4.083,20.338-11.495,27.751l-48.381,48.381c-4.672,4.672-4.672,12.247,0,16.918
	l135.347,135.348c4.673,4.672,12.245,4.673,16.919,0l48.382-48.382c7.411-7.412,17.267-11.494,27.75-11.494
	c10.482,0,20.338,4.083,27.751,11.495l46.008,46.008l0,0c7.412,7.412,11.494,17.267,11.494,27.751
	C488.056,373.409,483.974,383.263,476.562,390.675z"/>
<path d="M437.823,203.787c0.065,0,0.129,0,0.194-0.001c6.606-0.104,11.877-5.545,11.772-12.152
	c-0.547-34.348-14.229-66.646-38.526-90.943c-24.051-24.051-56.015-37.727-90.008-38.508c-6.575-0.145-12.083,5.08-12.235,11.686
	c-0.152,6.606,5.08,12.083,11.686,12.236c27.809,0.64,53.961,11.829,73.639,31.506c19.88,19.879,31.075,46.303,31.521,74.405
	C425.969,198.555,431.305,203.787,437.823,203.787z"/>
<path d="M321.437,110.054c-6.562-0.246-12.159,4.893-12.412,11.495c-0.254,6.602,4.893,12.159,11.495,12.413
	c15.097,0.579,29.3,6.785,39.991,17.478c10.877,10.876,17.09,25.328,17.501,40.695c0.173,6.496,5.493,11.645,11.952,11.645
	c0.108,0,0.217-0.001,0.324-0.004c6.605-0.176,11.816-5.673,11.639-12.278c-0.573-21.516-9.274-41.75-24.499-56.975
	C362.464,119.555,342.579,110.865,321.437,110.054z"/>
<path d="M320.783,38.242c40.562,0.666,78.704,16.836,107.397,45.53c28.902,28.902,45.076,67.321,45.541,108.182
	c0.075,6.561,5.416,11.827,11.959,11.827c0.045,0,0.092,0,0.139,0c6.606-0.075,11.901-5.492,11.826-12.098
	c-0.537-47.149-19.198-91.48-52.547-124.827c-33.109-33.109-77.119-51.765-123.924-52.535c-6.563-0.106-12.049,5.158-12.158,11.764
	C308.91,32.69,314.177,38.134,320.783,38.242z"/>
<path d="M94.185,112.393c-4.673-4.672-12.247-4.672-16.918,0C60.17,129.49,50.754,152.221,50.754,176.4s9.416,46.911,26.513,64.008
	c2.336,2.336,5.398,3.504,8.459,3.504c3.061,0,6.124-1.168,8.459-3.504c4.672-4.672,4.672-12.247,0-16.919
	c-12.578-12.578-19.506-29.301-19.506-47.089s6.928-34.511,19.505-47.089C98.857,124.639,98.858,117.064,94.185,112.393z"/>
<path d="M120.991,250.293c-4.672-4.672-12.247-4.672-16.919,0c-4.672,4.672-4.672,12.247,0,16.919l0.105,0.105
	c2.336,2.336,5.398,3.504,8.459,3.504c3.061,0,6.124-1.168,8.459-3.504c4.672-4.672,4.672-12.247,0-16.919L120.991,250.293z"/>
<g>
</g>
<g>
</g>
<g>
</g>
<g>
</g>
<g>
</g>
<g>
</g>
<g>
</g>
<g>
</g>
<g>
</g>
<g>
</g>
<g>
</g>
<g>
</g>
<g>
</g>
<g>
</g>
<g>
</g>
</svg>
