<?xml version="1.0" encoding="iso-8859-1"?>
<!-- Generator: Adobe Illustrator 17.1.0, SVG Export Plug-In . SVG Version: 6.00 Build 0)  -->
<!DOCTYPE svg PUBLIC "-//W3C//DTD SVG 1.1//EN" "http://www.w3.org/Graphics/SVG/1.1/DTD/svg11.dtd">
<svg version="1.1" id="Capa_1" xmlns="http://www.w3.org/2000/svg" xmlns:xlink="http://www.w3.org/1999/xlink" x="0px" y="0px"
	 viewBox="0 0 286.484 286.484" style="enable-background:new 0 0 286.484 286.484;" xml:space="preserve">
<path d="M143.242,0C64.258,0,0.001,64.259,0.001,143.243c0,78.983,64.258,143.241,143.241,143.241
	c78.984,0,143.242-64.258,143.242-143.241C286.484,64.259,222.226,0,143.242,0z M127.909,52.728c0-8.284,6.716-15,15-15
	c8.284,0,15,6.716,15,15v48.209c0,8.284-6.716,15-15,15c-8.284,0-15-6.716-15-15V52.728z M143.242,237.767
	c-52.537,0-95.279-42.742-95.279-95.279c0-28.682,12.749-55.563,34.979-73.751c6.412-5.246,15.862-4.3,21.108,2.11
	c5.246,6.412,4.301,15.862-2.11,21.108c-15.237,12.467-23.977,30.886-23.977,50.532c0,35.995,29.284,65.279,65.279,65.279
	c35.996,0,65.28-29.284,65.28-65.279c0-18.794-8.121-36.689-22.28-49.095c-6.232-5.459-6.857-14.937-1.398-21.167
	c5.46-6.231,14.936-6.857,21.167-1.397c20.661,18.103,32.511,44.221,32.511,71.659C238.522,195.024,195.78,237.767,143.242,237.767z
	"/>
<g>
</g>
<g>
</g>
<g>
</g>
<g>
</g>
<g>
</g>
<g>
</g>
<g>
</g>
<g>
</g>
<g>
</g>
<g>
</g>
<g>
</g>
<g>
</g>
<g>
</g>
<g>
</g>
<g>
</g>
</svg>
