<svg height="512pt" viewBox="-16 0 511 512" width="512pt" xmlns="http://www.w3.org/2000/svg"><path d="m7.722656 7.558594h272.484375v496.882812h-272.484375zm0 0" fill="#ff6c52"/><path d="m7.722656 7.558594h56.101563v496.882812h-56.101563zm0 0" fill="#ff432e"/><path d="m200.066406 183.871094h32.054688v32.058594h-32.054688zm0 0" fill="#dce1eb"/><path d="m328.292969 239.972656c8.816406 0 16.027343 7.210938 16.027343 16.027344s-7.214843 16.027344-16.027343 16.027344c-8.816407 0-16.027344-7.214844-16.027344-16.027344 0-8.816406 7.210937-16.027344 16.027344-16.027344zm0 0" fill="#ffda45"/><path d="m200.066406 376.210938h32.054688v32.058593h-32.054688zm0 0" fill="#dce1eb"/><path d="m232.121094 247.984375v96.171875h-104.183594v-32.054688h72.128906v-64.117187zm0 0" fill="#dce1eb"/><path d="m127.9375 376.210938h32.054688v32.058593h-32.054688zm0 0" fill="#dce1eb"/><path d="m55.808594 376.210938h32.058594v32.058593h-32.058594zm0 0" fill="#dce1eb"/><path d="m55.808594 312.101562h32.058594v32.054688h-32.058594zm0 0" fill="#dce1eb"/><path d="m55.808594 247.984375h32.058594v32.058594h-32.058594zm0 0" fill="#dce1eb"/><path d="m127.9375 247.984375h32.054688v32.058594h-32.054688zm0 0" fill="#dce1eb"/><path d="m127.9375 183.871094h32.054688v32.058594h-32.054688zm0 0" fill="#dce1eb"/><path d="m55.808594 183.871094h32.058594v32.058594h-32.058594zm0 0" fill="#dce1eb"/><path d="m55.808594 119.757812h32.058594v32.058594h-32.058594zm0 0" fill="#dce1eb"/><path d="m127.9375 119.757812h32.054688v32.058594h-32.054688zm0 0" fill="#dce1eb"/><path d="m200.066406 119.757812h32.054688v32.058594h-32.054688zm0 0" fill="#dce1eb"/><path d="m200.066406 39.617188h48.082032v32.054687h-48.082032zm0 0" fill="#dce1eb"/><path d="m168.007812 39.617188h32.058594v32.054687h-32.058594zm0 0" fill="#dce1eb"/><path d="m39.78125 39.617188h32.054688v32.054687h-32.054688zm0 0" fill="#dce1eb"/><path d="m96.214844 479.941406h-63.65625v-31.601562h15.117187v16.484375h48.539063zm0 0" fill="#fff"/><path d="m144.300781 464.824219h16.03125v15.117187h-16.03125zm0 0" fill="#fff"/><path d="m240.472656 432.765625h16.027344v15.121094h-16.027344zm0 0" fill="#fff"/><g fill="#231f20"><path d="m15.621094 15.121094h112.652344v-15.121094h-127.773438v512h79.6875v-15.121094h-64.566406zm0 0"/><path d="m152.316406 15.121094h120.667969v481.757812h-168.753906v15.121094h183.871093v-512h-135.785156zm0 0"/><path d="m79.734375 79.234375v-47.179687h-47.175781v47.179687zm-32.058594-32.058594h16.9375v16.9375h-16.9375zm0 0"/><path d="m160.785156 79.234375h95.261719v-47.179687h-95.261719zm80.140625-15.121094h-32.964843v-16.9375h32.964843zm-65.023437-16.9375h16.9375v16.9375h-16.9375zm0 0"/><path d="m48.585938 159.375h47.175781v-47.175781h-47.175781zm15.117187-32.054688h16.9375v16.933594h-16.9375zm0 0"/><path d="m120.714844 159.375h47.175781v-47.175781h-47.175781zm15.117187-32.054688h16.9375v16.933594h-16.9375zm0 0"/><path d="m240.019531 112.199219h-47.179687v47.175781h47.179687zm-15.121093 32.054687h-16.9375v-16.933594h16.9375zm0 0"/><path d="m48.585938 223.488281h47.175781v-47.175781h-47.175781zm15.117187-32.054687h16.9375v16.933594h-16.9375zm0 0"/><path d="m167.890625 176.3125h-47.175781v47.175781h47.175781zm-15.121094 32.054688h-16.9375v-16.933594h16.9375zm0 0"/><path d="m240.019531 176.3125h-47.179687v47.175781h47.179687zm-15.121093 32.054688h-16.9375v-16.933594h16.9375zm0 0"/><path d="m48.585938 287.601562h47.175781v-47.175781h-47.175781zm15.117187-32.054687h16.9375v16.9375h-16.9375zm0 0"/><path d="m120.714844 287.601562h47.175781v-47.175781h-47.175781zm15.117187-32.054687h16.9375v16.9375h-16.9375zm0 0"/><path d="m240.019531 288.058594v-47.632813h-47.179687v64.113281h-72.125v47.175782h119.304687v-39.613282h-15.121093v24.496094h-89.066407v-16.9375h72.128907v-64.113281h16.9375v32.511719zm0 0"/><path d="m48.585938 351.714844h47.175781v-47.175782h-47.175781zm15.117187-32.054688h16.9375v16.9375h-16.9375zm0 0"/><path d="m48.585938 415.828125h47.175781v-47.175781h-47.175781zm15.117187-32.054687h16.9375v16.9375h-16.9375zm0 0"/><path d="m167.890625 368.652344h-47.175781v47.175781h47.175781zm-15.121094 32.058594h-16.9375v-16.9375h16.9375zm0 0"/><path d="m240.019531 368.652344h-47.179687v47.175781h47.179687zm-15.121093 32.058594h-16.9375v-16.9375h16.9375zm0 0"/><path d="m112.246094 464.824219h16.027344v15.117187h-16.027344zm0 0"/><path d="m240.472656 464.824219h16.027344v15.117187h-16.027344zm0 0"/><path d="m208.414062 464.824219h16.027344v15.117187h-16.027344zm0 0"/><path d="m360.683594 136.242188v15.117187c57.699218 0 104.640625 46.941406 104.640625 104.640625s-46.941407 104.640625-104.640625 104.640625v15.117187c66.035156 0 119.761718-53.722656 119.761718-119.757812s-53.726562-119.757812-119.761718-119.757812zm0 0"/><path d="m440.371094 256c0-43.941406-35.746094-79.6875-79.6875-79.6875v15.121094c35.601562 0 64.566406 28.964844 64.566406 64.566406s-28.960938 64.566406-64.566406 64.566406v15.121094c43.941406 0 79.6875-35.746094 79.6875-79.6875zm0 0"/><path d="m400.300781 256c0-21.84375-17.773437-39.617188-39.617187-39.617188v15.121094c13.507812 0 24.496094 10.988282 24.496094 24.496094s-10.988282 24.496094-24.496094 24.496094v15.121094c21.84375 0 39.617187-17.773438 39.617187-39.617188zm0 0"/><path d="m328.628906 232.410156c-13.007812 0-23.589844 10.582032-23.589844 23.589844s10.582032 23.585938 23.589844 23.585938c13.003906 0 23.585938-10.582032 23.585938-23.585938 0-13.007812-10.582032-23.589844-23.585938-23.589844zm0 32.058594c-4.671875 0-8.46875-3.800781-8.46875-8.46875s3.796875-8.46875 8.46875-8.46875c4.667969 0 8.46875 3.800781 8.46875 8.46875s-3.800781 8.46875-8.46875 8.46875zm0 0"/></g></svg>