<svg height="512" viewBox="0 0 192 192" width="512" xmlns="http://www.w3.org/2000/svg"><g id="_28-remote_controller" data-name="28-remote controller"><path d="m120 64h-48a24.028 24.028 0 0 0 -24 24v80a24.028 24.028 0 0 0 24 24h48a24.028 24.028 0 0 0 24-24v-80a24.028 24.028 0 0 0 -24-24zm8 104a8.009 8.009 0 0 1 -8 8h-48a8.009 8.009 0 0 1 -8-8v-80a8.009 8.009 0 0 1 8-8h48a8.009 8.009 0 0 1 8 8z"/><path d="m96 88a24 24 0 1 0 24 24 24.027 24.027 0 0 0 -24-24zm0 32a8 8 0 1 1 8-8 8.009 8.009 0 0 1 -8 8z"/><path d="m104 152h16v16h-16z"/><path d="m72 152h16v16h-16z"/><path d="m79.029 39.03 11.315 11.313a8 8 0 0 1 11.312 0l11.315-11.315a24 24 0 0 0 -33.942 0z"/><path d="m96 16a39.742 39.742 0 0 1 28.285 11.716l11.315-11.316a56 56 0 0 0 -79.2 0l11.316 11.316a39.738 39.738 0 0 1 28.284-11.716z"/></g></svg>